# Blender 3.6.2
# www.blender.org
o Apple
v -0.288768 -0.269012 0.290753
v -0.080947 0.518960 0.031741
v -0.288768 -0.269012 -0.288019
v 0.038320 0.517311 -0.075842
v 0.290004 -0.269012 0.290753
v 0.044359 0.507509 0.087881
v 0.290004 -0.269012 -0.288019
v -0.353806 -0.334050 0.001367
v -0.353806 0.020374 0.355791
v -0.353806 0.020374 -0.353056
v 0.000618 -0.334050 -0.353056
v 0.355042 0.020374 -0.353056
v 0.355042 -0.334050 0.001367
v 0.355042 0.020374 0.355791
v 0.000618 -0.334050 0.355791
v 0.000618 -0.480857 0.001367
v 0.000618 0.020374 0.502598
v 0.501849 0.020374 0.001367
v 0.000618 0.020374 -0.499864
v -0.500613 0.020374 0.001367
v -0.353806 0.392831 0.001367
v -0.288768 0.309760 -0.288019
v 0.000618 0.374798 -0.353056
v 0.290004 0.309760 -0.288019
v 0.355042 0.374798 0.001367
v 0.290004 0.309760 0.290753
v 0.000618 0.374798 0.355791
v -0.288768 0.309760 0.290753
v 0.030578 0.771474 0.076781
v 0.067312 0.656924 0.049127
v -0.004434 0.648668 0.040872
vn -1.0000 -0.0042 -0.0000
vn -0.5778 0.5637 -0.5902
vn -0.7071 -0.0000 -0.7071
vn -0.0000 -0.0000 -1.0000
vn 0.5896 0.5538 -0.5880
vn 0.7071 -0.0000 -0.7071
vn 1.0000 -0.0000 -0.0000
vn 0.5887 0.5556 0.5871
vn 0.7071 -0.0000 0.7071
vn -0.0000 -0.0000 1.0000
vn -0.5840 0.5480 0.5989
vn -0.7071 -0.0000 0.7071
vn -0.0000 -1.0000 -0.0000
vn 0.5774 -0.5774 0.5774
vn -0.0000 -0.7071 0.7071
vn 0.3140 0.8007 0.5101
vn -0.8455 0.4605 0.2702
vn -0.4840 0.8725 0.0673
vn -0.5774 -0.5774 0.5774
vn -0.7071 -0.7071 -0.0000
vn -0.5774 -0.5774 -0.5774
vn 0.5774 -0.5774 -0.5774
vn -0.0000 -0.7071 -0.7071
vn 0.7071 -0.7071 -0.0000
vn 0.1482 0.8874 -0.4366
vn -0.7153 0.6987 -0.0147
vn 0.7334 0.6798 0.0014
vn -0.0025 0.6742 0.7386
vn -0.0109 0.6801 -0.7330
vn -0.0208 0.9373 0.3478
vn 0.8712 0.2712 0.4091
vt 0.500000 0.125000
vt 0.625000 0.250000
vt 0.500000 0.250000
vt 0.500000 0.375000
vt 0.625000 0.500000
vt 0.500000 0.500000
vt 0.500000 0.625000
vt 0.625000 0.750000
vt 0.500000 0.750000
vt 0.500000 0.875000
vt 0.625000 1.000000
vt 0.500000 1.000000
vt 0.250000 0.625000
vt 0.375000 0.750000
vt 0.250000 0.750000
vt 0.750000 0.699348
vt 0.816706 0.691706
vt 0.125000 0.750000
vt 0.125000 0.625000
vt 0.125000 0.500000
vt 0.375000 0.500000
vt 0.250000 0.500000
vt 0.375000 1.000000
vt 0.375000 0.875000
vt 0.375000 0.625000
vt 0.375000 0.375000
vt 0.375000 0.250000
vt 0.375000 0.125000
vt 0.375000 0.000000
vt 0.625000 0.000000
vt 0.500000 0.000000
vt 0.816706 0.558294
vt 0.875000 0.625000
vt 0.824348 0.625000
vt 0.683294 0.691706
vt 0.625000 0.625000
vt 0.675652 0.625000
vt 0.750000 0.750000
vt 0.875000 0.750000
vt 0.750000 0.500000
vt 0.875000 0.500000
vt 0.683294 0.558294
vt 0.750000 0.625000
vt 0.625000 0.125000
vt 0.625000 0.375000
vt 0.625000 0.875000
s 1
f 20/1/1 22/2/2 10/3/3
f 19/4/4 24/5/5 12/6/6
f 18/7/7 26/8/8 14/9/9
f 17/10/10 28/11/11 9/12/12
f 16/13/13 5/14/14 15/15/15
f 6/16/16 31/17/17 2/17/18
f 16/13/13 1/18/19 8/19/20
f 3/20/21 16/13/13 8/19/20
f 7/21/22 16/13/13 11/22/23
f 17/10/10 1/23/19 15/24/15
f 5/14/14 17/10/10 15/24/15
f 26/8/8 17/10/10 14/9/9
f 18/7/7 5/14/14 13/25/24
f 7/21/22 18/7/7 13/25/24
f 24/5/5 18/7/7 12/6/6
f 19/4/4 7/21/22 11/26/23
f 3/27/21 19/4/4 11/26/23
f 22/2/2 19/4/4 10/3/3
f 20/1/1 3/27/21 8/28/20
f 1/29/19 20/1/1 8/28/20
f 28/30/11 20/1/1 9/31/12
f 4/32/25 21/33/26 2/34/18
f 6/35/16 25/36/27 4/37/25
f 2/17/18 27/38/28 6/16/16
f 2/17/18 21/33/26 28/39/11
f 4/32/25 23/40/29 22/41/2
f 4/42/25 25/36/27 24/5/5
f 6/35/16 27/38/28 26/8/8
f 29/43/30 31/17/17 30/16/31
f 29/43/30 30/35/31 4/37/25
f 2/34/18 31/17/17 4/34/25
f 4/37/25 30/35/31 6/35/16
f 20/1/1 21/44/26 22/2/2
f 19/4/4 23/45/29 24/5/5
f 18/7/7 25/36/27 26/8/8
f 17/10/10 27/46/28 28/11/11
f 16/13/13 13/25/24 5/14/14
f 6/16/16 30/16/31 31/17/17
f 16/13/13 15/15/15 1/18/19
f 3/20/21 11/22/23 16/13/13
f 7/21/22 13/25/24 16/13/13
f 17/10/10 9/12/12 1/23/19
f 5/14/14 14/9/9 17/10/10
f 26/8/8 27/46/28 17/10/10
f 18/7/7 14/9/9 5/14/14
f 7/21/22 12/6/6 18/7/7
f 24/5/5 25/36/27 18/7/7
f 19/4/4 12/6/6 7/21/22
f 3/27/21 10/3/3 19/4/4
f 22/2/2 23/45/29 19/4/4
f 20/1/1 10/3/3 3/27/21
f 1/29/19 9/31/12 20/1/1
f 28/30/11 21/44/26 20/1/1
f 4/32/25 22/41/2 21/33/26
f 4/42/25 24/5/5 23/40/29
f 6/35/16 26/8/8 25/36/27
f 2/17/18 28/39/11 27/38/28
f 29/43/30 4/34/25 31/17/17
